<svg width="136" height="180" viewBox="0 0 136 180" fill="none" xmlns="http://www.w3.org/2000/svg">
<path d="M70.3504 179.969C61.4966 180.041 53.8441 121.563 48.8794 115.897C43.9141 110.165 0.700071 108.801 0.618786 98.701C0.563892 91.8803 42.3221 79.4171 44.5118 74.4147C46.7666 69.3463 49.6796 60.3207 53.7897 57.5985C54.5639 52.0921 59.256 0.552335 64.8306 0.50747C67.3884 0.486885 73.5396 58.7347 75.7742 59.307C78.0738 59.8133 80.0791 60.4204 81.7901 61.1281C83.5662 61.7697 84.9485 62.3816 85.937 62.9639C86.925 63.4807 87.4189 63.7392 87.4189 63.7392L86.5716 68.4684C86.5716 68.4684 86.0776 68.2099 85.0896 67.6932C84.1672 67.1758 82.8835 66.596 81.2387 65.9533C79.5933 65.2451 77.7519 64.6368 75.7146 64.1285C73.6773 63.6201 71.5765 63.3746 69.4122 63.3921C63.1817 63.4422 58.2491 65.8432 54.6144 70.5948C50.9798 75.3463 49.2004 82.4442 49.2764 91.8883C49.3514 101.201 51.2765 108.138 55.0517 112.699C58.892 117.193 64.0257 119.415 70.4529 119.363C73.4042 119.339 75.9908 118.827 78.2128 117.825C80.4347 116.823 82.2621 115.693 83.6949 114.436C85.1933 113.178 86.2993 112.054 87.0128 111.064C87.7263 110.075 88.083 109.58 88.083 109.58L90.8629 112.706C90.8629 112.706 90.4413 113.299 89.5982 114.487C88.8202 115.608 87.5847 116.93 85.8916 118.452C84.1986 119.974 82.0124 121.336 79.3329 122.538C76.6529 123.675 74.1543 179.939 70.3504 179.969Z" fill="white"/>
<path d="M96.6623 122.399L96.1477 58.4545L112.281 58.3246C118.905 58.2713 123.935 59.7394 127.369 62.7288C130.803 65.6527 132.539 69.4429 132.577 74.0994C132.607 77.9033 131.648 80.9938 129.7 83.3707C127.816 85.6814 125.732 87.4362 123.446 88.6352C127.126 89.5893 130.092 91.3691 132.343 93.9745C134.659 96.5138 135.834 99.8492 135.867 103.981C135.912 109.621 134.079 114.063 130.366 117.307C126.654 120.55 120.83 122.204 112.894 122.268L96.6623 122.399ZM103.857 87.3172L115.465 87.2237C116.58 87.2148 117.922 86.876 119.491 86.2074C121.059 85.4734 122.426 84.1834 123.592 82.3375C124.823 80.4911 125.426 77.9283 125.399 74.6491C125.365 70.4518 124.095 67.4121 121.587 65.5302C119.079 63.5828 115.891 62.6244 112.021 62.6556L103.659 62.7229L103.857 87.3172ZM104.104 118.01L112.564 117.942C123.255 117.856 128.562 113.124 128.486 103.745C128.451 99.2855 127.211 96.0818 124.769 94.1338C122.392 92.1853 119.433 91.2253 115.891 91.2538L103.89 91.3504L104.104 118.01Z" fill="white"/>
</svg>
