<svg width="359" height="180" viewBox="0 0 359 180" fill="none" xmlns="http://www.w3.org/2000/svg">
<path d="M69.5519 180C60.6978 180 53.5161 121.463 48.5972 115.757C43.6782 109.985 0.476562 108.274 0.476562 98.1732C0.476562 91.3523 42.3337 79.2253 44.5636 74.2407C46.8592 69.1906 49.8446 60.189 53.9766 57.5C54.7951 52 59.9017 0.5 65.4766 0.5C68.0344 0.5 73.7166 58.7952 75.9465 59.3854C78.2421 59.9101 80.2424 60.5332 81.9477 61.2546C83.7185 61.9105 85.0958 62.5336 86.0796 63.1238C87.0634 63.6485 87.5553 63.9109 87.5553 63.9109L86.6699 68.6331C86.6699 68.6331 86.178 68.3707 85.1942 67.846C84.276 67.3214 82.997 66.7311 81.3574 66.0752C79.7177 65.3538 77.8813 64.7307 75.8482 64.206C73.815 63.6813 71.7162 63.419 69.5519 63.419C63.3212 63.419 58.3695 65.7801 54.6967 70.5023C51.0239 75.2245 49.1875 82.3077 49.1875 91.7521C49.1875 101.065 51.0567 108.017 54.7951 112.609C58.599 117.134 63.7148 119.397 70.1422 119.397C73.0936 119.397 75.6842 118.905 77.9141 117.921C80.1441 116.937 81.9804 115.822 83.4233 114.576C84.9318 113.33 86.0468 112.215 86.7682 111.231C87.4897 110.247 87.8504 109.756 87.8504 109.756L90.605 112.904C90.605 112.904 90.1787 113.494 89.3261 114.674C88.5391 115.789 87.2929 117.101 85.5877 118.61C83.8825 120.118 81.6853 121.463 78.9963 122.643C76.3073 123.758 73.3559 180 69.5519 180Z" fill="white"/>
<path d="M98.0149 112.832L115.133 63.6422H123.495L140.121 112.832H132.743L127.627 98.1732H108.148L103.032 112.832H98.0149ZM109.427 94.4348H126.348L118.084 68.8563L109.427 94.4348Z" fill="white"/>
<path d="M150.886 112.832L151.181 63.6422H159.937L177.153 104.174H177.251L194.271 63.6422H202.633L202.928 112.832H195.943L195.648 72.2012L178.826 112.832H173.021L156.198 72.2012L156.1 112.832H150.886Z" fill="white"/>
<path d="M220.278 120.112V56.1654H236.413C243.037 56.1654 248.054 57.6739 251.465 60.6908C254.875 63.6422 256.58 67.4462 256.58 72.1028C256.58 75.9068 255.596 78.9893 253.629 81.3504C251.727 83.6459 249.628 85.384 247.333 86.5645C251.006 87.5483 253.957 89.3519 256.187 91.9753C258.482 94.5332 259.63 97.8781 259.63 102.01C259.63 107.65 257.761 112.078 254.022 115.291C250.284 118.505 244.447 120.112 236.511 120.112H220.278ZM227.755 85.0889H239.364C240.479 85.0889 241.824 84.7609 243.398 84.1051C244.972 83.3836 246.349 82.1047 247.529 80.2683C248.776 78.4319 249.399 75.874 249.399 72.5947C249.399 68.3972 248.153 65.3474 245.66 63.4454C243.168 61.4779 239.987 60.4941 236.118 60.4941H227.755V85.0889ZM227.755 115.783H236.216C246.906 115.783 252.252 111.094 252.252 101.715C252.252 97.2551 251.038 94.0413 248.612 92.0738C246.251 90.1062 243.299 89.1224 239.758 89.1224H227.755V115.783Z" fill="white"/>
<path d="M272.419 112.832V63.6422H285.601C290.914 63.6422 295.046 64.9539 297.997 67.5774C301.014 70.2008 302.522 73.9392 302.522 78.7926C302.522 82.6621 301.67 85.7775 299.965 88.1386C298.259 90.4997 296.161 92.2377 293.668 93.3527L305.867 112.832H297.702L286.782 94.8283H279.502V112.832H272.419ZM279.502 90.6965H285.306C288.389 90.6965 290.783 89.8438 292.488 88.1386C294.259 86.4334 295.144 83.3836 295.144 78.9893C295.144 75.0542 294.259 72.2012 292.488 70.4303C290.783 68.5939 288.192 67.6758 284.716 67.6758H279.502V90.6965Z" fill="white"/>
<path d="M336.07 113.816C328.987 113.816 323.511 111.52 319.641 106.929C315.772 102.272 313.837 96.0417 313.837 88.237C313.837 80.4978 315.772 74.2999 319.641 69.6433C323.511 64.9867 328.987 62.6584 336.07 62.6584C340.793 62.6584 344.826 63.7406 348.171 65.9049C351.516 68.0037 354.074 70.955 355.845 74.759C357.615 78.563 358.501 83.0557 358.501 88.237C358.501 96.0417 356.533 102.272 352.598 106.929C348.663 111.52 343.154 113.816 336.07 113.816ZM336.07 109.487C340.858 109.487 344.498 107.683 346.991 104.076C349.483 100.469 350.729 95.1891 350.729 88.237C350.729 81.416 349.45 76.1691 346.892 72.4963C344.4 68.8235 340.793 66.9871 336.07 66.9871C331.348 66.9871 327.741 68.8235 325.249 72.4963C322.757 76.1691 321.51 81.416 321.51 88.237C321.51 95.1891 322.724 100.469 325.15 104.076C327.643 107.683 331.283 109.487 336.07 109.487Z" fill="white"/>
<path d="M69.5519 180C60.6978 180 53.5161 121.463 48.5972 115.757C43.6782 109.985 0.476562 108.274 0.476562 98.1732C0.476562 91.3523 42.3337 79.2253 44.5636 74.2407C46.8592 69.1906 49.8446 60.189 53.9766 57.5C54.7951 52 59.9017 0.5 65.4766 0.5C68.0344 0.5 73.7166 58.7952 75.9465 59.3854C78.2421 59.9101 80.2424 60.5332 81.9477 61.2546C83.7185 61.9105 85.0958 62.5336 86.0796 63.1238C87.0634 63.6485 87.5553 63.9109 87.5553 63.9109L86.6699 68.6331C86.6699 68.6331 86.178 68.3707 85.1942 67.846C84.276 67.3214 82.997 66.7311 81.3574 66.0752C79.7177 65.3538 77.8813 64.7307 75.8482 64.206C73.815 63.6813 71.7162 63.419 69.5519 63.419C63.3212 63.419 58.3695 65.7801 54.6967 70.5023C51.0239 75.2245 49.1875 82.3077 49.1875 91.7521C49.1875 101.065 51.0567 108.017 54.7951 112.609C58.599 117.134 63.7148 119.397 70.1422 119.397C73.0936 119.397 75.6842 118.905 77.9141 117.921C80.1441 116.937 81.9804 115.822 83.4233 114.576C84.9318 113.33 86.0468 112.215 86.7682 111.231C87.4897 110.247 87.8504 109.756 87.8504 109.756L90.605 112.904C90.605 112.904 90.1787 113.494 89.3261 114.674C88.5391 115.789 87.2929 117.101 85.5877 118.61C83.8825 120.118 81.6853 121.463 78.9963 122.643C76.3073 123.758 73.3559 180 69.5519 180Z" stroke="white"/>
<path d="M98.0149 112.832L115.133 63.6422H123.495L140.121 112.832H132.743L127.627 98.1732H108.148L103.032 112.832H98.0149ZM109.427 94.4348H126.348L118.084 68.8563L109.427 94.4348Z" stroke="white"/>
<path d="M150.886 112.832L151.181 63.6422H159.937L177.153 104.174H177.251L194.271 63.6422H202.633L202.928 112.832H195.943L195.648 72.2012L178.826 112.832H173.021L156.198 72.2012L156.1 112.832H150.886Z" stroke="white"/>
<path d="M220.278 120.112V56.1654H236.413C243.037 56.1654 248.054 57.6739 251.465 60.6908C254.875 63.6422 256.58 67.4462 256.58 72.1028C256.58 75.9068 255.596 78.9893 253.629 81.3504C251.727 83.6459 249.628 85.384 247.333 86.5645C251.006 87.5483 253.957 89.3519 256.187 91.9753C258.482 94.5332 259.63 97.8781 259.63 102.01C259.63 107.65 257.761 112.078 254.022 115.291C250.284 118.505 244.447 120.112 236.511 120.112H220.278ZM227.755 85.0889H239.364C240.479 85.0889 241.824 84.7609 243.398 84.1051C244.972 83.3836 246.349 82.1047 247.529 80.2683C248.776 78.4319 249.399 75.874 249.399 72.5947C249.399 68.3972 248.153 65.3474 245.66 63.4454C243.168 61.4779 239.987 60.4941 236.118 60.4941H227.755V85.0889ZM227.755 115.783H236.216C246.906 115.783 252.252 111.094 252.252 101.715C252.252 97.2551 251.038 94.0413 248.612 92.0738C246.251 90.1062 243.299 89.1224 239.758 89.1224H227.755V115.783Z" stroke="white"/>
<path d="M272.419 112.832V63.6422H285.601C290.914 63.6422 295.046 64.9539 297.997 67.5774C301.014 70.2008 302.522 73.9392 302.522 78.7926C302.522 82.6621 301.67 85.7775 299.965 88.1386C298.259 90.4997 296.161 92.2377 293.668 93.3527L305.867 112.832H297.702L286.782 94.8283H279.502V112.832H272.419ZM279.502 90.6965H285.306C288.389 90.6965 290.783 89.8438 292.488 88.1386C294.259 86.4334 295.144 83.3836 295.144 78.9893C295.144 75.0542 294.259 72.2012 292.488 70.4303C290.783 68.5939 288.192 67.6758 284.716 67.6758H279.502V90.6965Z" stroke="white"/>
<path d="M336.07 113.816C328.987 113.816 323.511 111.52 319.641 106.929C315.772 102.272 313.837 96.0417 313.837 88.237C313.837 80.4978 315.772 74.2999 319.641 69.6433C323.511 64.9867 328.987 62.6584 336.07 62.6584C340.793 62.6584 344.826 63.7406 348.171 65.9049C351.516 68.0037 354.074 70.955 355.845 74.759C357.615 78.563 358.501 83.0557 358.501 88.237C358.501 96.0417 356.533 102.272 352.598 106.929C348.663 111.52 343.154 113.816 336.07 113.816ZM336.07 109.487C340.858 109.487 344.498 107.683 346.991 104.076C349.483 100.469 350.729 95.1891 350.729 88.237C350.729 81.416 349.45 76.1691 346.892 72.4963C344.4 68.8235 340.793 66.9871 336.07 66.9871C331.348 66.9871 327.741 68.8235 325.249 72.4963C322.757 76.1691 321.51 81.416 321.51 88.237C321.51 95.1891 322.724 100.469 325.15 104.076C327.643 107.683 331.283 109.487 336.07 109.487Z" stroke="white"/>
</svg>
